<svg xmlns="http://www.w3.org/2000/svg" width="24.271" height="20.768" viewBox="0 0 24.271 20.768">
  <g id="solid" transform="translate(0 0)">
    <ellipse id="Ellipse_32" data-name="Ellipse 32" cx="0.965" cy="0.965" rx="0.965" ry="0.965" transform="translate(15.005 14.981)" fill="#fff"/>
    <ellipse id="Ellipse_33" data-name="Ellipse 33" cx="0.965" cy="0.965" rx="0.965" ry="0.965" transform="translate(9.861 8.55)" fill="#fff"/>
    <path id="Path_931" data-name="Path 931" d="M168.442,66.651a.442.442,0,0,0,.442-.442V64.442a.442.442,0,1,0-.884,0v1.768A.442.442,0,0,0,168.442,66.651Z" transform="translate(-160.488 -64)" fill="#fff"/>
    <path id="Path_932" data-name="Path 932" d="M360.442,66.651a.442.442,0,0,0,.442-.442V64.442a.442.442,0,1,0-.884,0v1.768A.442.442,0,0,0,360.442,66.651Z" transform="translate(-341.883 -64)" fill="#fff"/>
    <path id="Path_933" data-name="Path 933" d="M200.884,324.9a.442.442,0,0,1,.884,0v.884h.884v-1.143l-1.326-1.326L200,324.639v1.143h.884Z" transform="translate(-190.721 -308.99)" fill="#fff"/>
    <path id="Path_934" data-name="Path 934" d="M72.442,66.651a.442.442,0,0,0,.442-.442V64.442a.442.442,0,1,0-.884,0v1.768A.442.442,0,0,0,72.442,66.651Z" transform="translate(-69.791 -64)" fill="#fff"/>
    <ellipse id="Ellipse_34" data-name="Ellipse 34" cx="0.643" cy="0.965" rx="0.643" ry="0.965" transform="translate(4.716 14.981)" fill="#fff"/>
    <path id="Path_935" data-name="Path 935" d="M432.958,104.616A.665.665,0,0,0,432.3,104H432v17.675h2.177Z" transform="translate(-409.906 -101.791)" fill="#fff"/>
    <path id="Path_936" data-name="Path 936" d="M264.442,66.651a.442.442,0,0,0,.442-.442V64.442a.442.442,0,1,0-.884,0v1.768A.442.442,0,0,0,264.442,66.651Z" transform="translate(-251.185 -64)" fill="#fff"/>
    <path id="Path_937" data-name="Path 937" d="M50.559,105.326A1.327,1.327,0,0,1,49.233,104H46.582a1.326,1.326,0,1,1-2.651,0H41.279a1.326,1.326,0,1,1-2.651,0H35.977a1.326,1.326,0,1,1-2.651,0H32.11a.11.11,0,0,0-.11.11v1.657H53.21V104H51.885A1.327,1.327,0,0,1,50.559,105.326Z" transform="translate(-32 -101.791)" fill="#fff"/>
    <ellipse id="Ellipse_35" data-name="Ellipse 35" cx="0.643" cy="0.965" rx="0.643" ry="0.965" transform="translate(4.716 8.55)" fill="#fff"/>
    <path id="Path_938" data-name="Path 938" d="M32,167.8a.11.11,0,0,0,.11.11H53.1a.11.11,0,0,0,.11-.11V152H32Zm17.233-.773H47.024a.442.442,0,1,1,0-.884h2.209a.442.442,0,1,1,0,.884ZM51,166.14h.442a.442.442,0,1,1,0,.884H51a.442.442,0,1,1,0-.884Zm-4.289-10.918a.442.442,0,0,1,.625,0l.542.542,1.9-2.279a.442.442,0,1,1,.679.566L48.247,156.7a.442.442,0,0,1-.319.159h-.02a.442.442,0,0,1-.312-.129l-.884-.884A.442.442,0,0,1,46.711,155.223Zm2.964,1.2a1.768,1.768,0,0,1-2.946,1.317.442.442,0,0,1,.589-.658.884.884,0,0,0,1.473-.659.442.442,0,1,1,.884,0Zm-1.768,4.861a1.768,1.768,0,1,1-1.768,1.768A1.768,1.768,0,0,1,47.908,161.279Zm-5.3-6.628a1.768,1.768,0,1,1-1.768,1.768A1.768,1.768,0,0,1,42.605,154.651ZM40.4,162.605a.442.442,0,0,1,.129-.312l1.768-1.768a.442.442,0,0,1,.625,0l1.768,1.768a.442.442,0,0,1,.129.313v1.768a.442.442,0,0,1-.442.442H40.838a.442.442,0,0,1-.442-.442ZM37.3,154.651a1.768,1.768,0,1,1-1.768,1.768A1.768,1.768,0,0,1,37.3,154.651Zm0,6.628a1.768,1.768,0,1,1-1.768,1.768A1.768,1.768,0,0,1,37.3,161.279Z" transform="translate(-32 -147.139)" fill="#fff"/>
  </g>
</svg>
