<svg xmlns="http://www.w3.org/2000/svg" width="21.844" height="21.844" viewBox="0 0 21.844 21.844">
  <g id="synchronize" transform="translate(0 0)">
    <path id="Path_949" data-name="Path 949" d="M12.515,6.371h-.683V4.551a4.551,4.551,0,1,0-9.1,0v1.82H2.048A2.051,2.051,0,0,0,0,8.419v7.736A2.051,2.051,0,0,0,2.048,18.2h8.919a2.536,2.536,0,0,1,.719-1.347,2.718,2.718,0,0,1-.209-2.9,6.574,6.574,0,0,1,3.085-2.885V8.419A2.051,2.051,0,0,0,12.515,6.371ZM4.551,4.551a2.73,2.73,0,1,1,5.461,0v1.82H4.551Z" transform="translate(0 0)" fill="#fff"/>
    <path id="Path_950" data-name="Path 950" d="M22.4,19.868a.911.911,0,0,0-1.233.367,2.936,2.936,0,0,1-4.157,1.113l.433-.433a.682.682,0,0,0-.482-1.165H14.683a.683.683,0,0,0-.683.683v2.275a.683.683,0,0,0,.421.631.672.672,0,0,0,.261.052.679.679,0,0,0,.482-.2l.522-.522A4.789,4.789,0,0,0,22.764,21.1.91.91,0,0,0,22.4,19.868Z" transform="translate(-1.258 -1.775)" fill="#fff"/>
    <path id="Path_951" data-name="Path 951" d="M22.7,13.779a.681.681,0,0,0-.744.148l-.522.522a4.785,4.785,0,0,0-7.079,1.577.91.91,0,0,0,1.6.862,2.931,2.931,0,0,1,4.155-1.119l-.433.433a.682.682,0,0,0,.482,1.165h2.275a.683.683,0,0,0,.683-.683V14.41A.683.683,0,0,0,22.7,13.779Z" transform="translate(-1.28 -1.213)" fill="#fff"/>
  </g>
</svg>
