<svg xmlns="http://www.w3.org/2000/svg" width="40.675" height="38.667" viewBox="0 0 40.675 38.667"><g transform="translate(3.499 -9.313)"><path d="M35.2,9.313H7.167a1.982,1.982,0,0,0-1.98,1.98v6.825L4.409,16.95h0a2.255,2.255,0,0,0-1.88-1.009H2.522a2.248,2.248,0,0,0-1.159.324h0l-3,1.8h.03A4.143,4.143,0,0,0-3.163,20.3V20.3h0v0h0A9.616,9.616,0,0,0-3.5,22.86h0a14.964,14.964,0,0,0,1.858,6.8A38.09,38.09,0,0,0,5.5,38.954h0l.013.013a38.155,38.155,0,0,0,9.311,7.155,14.963,14.963,0,0,0,6.8,1.857h.045a9.617,9.617,0,0,0,2.508-.333h.007a4.15,4.15,0,0,0,2.45-1.885h0l0,0h0l1.582-2.638a2.248,2.248,0,0,0,.323-1.154v-.008h0a2.256,2.256,0,0,0-1-1.872l0,0-6.324-4.215h0a2.259,2.259,0,0,0-1.249-.376h0a2.265,2.265,0,0,0-1.785.869h0l-1.841,2.366h0a.366.366,0,0,1-.468.1l-.357-.2h0a16.182,16.182,0,0,1-2.048-1.278,29.868,29.868,0,0,1-3.361-2.974c-.144-.144-.28-.282-.412-.418H35.2a1.979,1.979,0,0,0,1.979-1.971V11.293h0A1.982,1.982,0,0,0,35.2,9.313ZM14.621,40.287h0l.337.185h0a2.24,2.24,0,0,0,1.09.283h0a2.245,2.245,0,0,0,1.78-.876h0l1.837-2.361a.375.375,0,0,1,.5-.082h0l6.314,4.209a.372.372,0,0,1,.113.5l-.01.016-1.575,2.626h0a2.268,2.268,0,0,1-1.336,1.037A7.817,7.817,0,0,1,21.6,46.1a13.166,13.166,0,0,1-6.056-1.714A36.749,36.749,0,0,1,6.851,37.63,36.735,36.735,0,0,1,.1,28.937a13.166,13.166,0,0,1-1.713-6.054,7.818,7.818,0,0,1,.27-2.077A2.268,2.268,0,0,1-.307,19.469h0l2.642-1.585a.372.372,0,0,1,.5.113h0l0,0h0L7.047,24.31a.375.375,0,0,1-.081.5L4.6,26.649h0a2.244,2.244,0,0,0-.877,1.78h0a2.24,2.24,0,0,0,.285,1.091h0l.186.338a17.988,17.988,0,0,0,1.4,2.246,31.607,31.607,0,0,0,3.179,3.6,31.675,31.675,0,0,0,3.6,3.178h0A18.008,18.008,0,0,0,14.621,40.287ZM35.29,11.292v20.69a.091.091,0,0,1-.09.089H7.972a16.591,16.591,0,0,1-2.116-3.107v0l-.2-.356a.364.364,0,0,1,.1-.466h0L8.126,26.3h0a2.265,2.265,0,0,0,.867-1.782h0a2.26,2.26,0,0,0-.377-1.248L7.074,20.949V11.292h0a.089.089,0,0,1,.089-.089H35.2a.089.089,0,0,1,.089.089v0Z" transform="translate(0)" fill="#fff"/><path d="M401.1,440.54h0Z" transform="translate(-372.88 -397.422)" fill="#fff"/><path d="M169.983,47.088h-.005a.94.94,0,0,0-.467.127l0-.007-11.27,8.547a.628.628,0,0,1-.737,0L146.327,47.28a.94.94,0,0,0-.569-.192h0a.944.944,0,0,0-.942.942h0a.943.943,0,0,0,.373.75l11.179,8.479h0a2.523,2.523,0,0,0,1.5.494h.005a2.524,2.524,0,0,0,1.5-.494h0l11.181-8.478a.943.943,0,0,0-.569-1.7Z" transform="translate(-136.686 -34.814)" fill="#fff"/><path d="M153.082,168.911h-.007a.942.942,0,0,0-.648.263l0,0,0,0,0,.005-6.864,7.351,0,0a.941.941,0,0,0-.24.627h0a.943.943,0,0,0,.941.942h0a.942.942,0,0,0,.689-.3l6.858-7.347.005-.006h0a.941.941,0,0,0,.217-.6h0v0h0a.943.943,0,0,0-.941-.943Z" transform="translate(-137.144 -147.087)" fill="#fff"/><path d="M375.188,176.859a.941.941,0,0,0-.253-.641l-6.851-7.338h0a.942.942,0,0,0-.689-.3h0a.943.943,0,0,0-.941.942h0v0h0a.941.941,0,0,0,.253.64l6.851,7.338h0l0,0h0a.942.942,0,0,0,.685.3h0a.943.943,0,0,0,.942-.942h0v0Z" transform="translate(-340.949 -146.781)" fill="#fff"/></g></svg>