<svg xmlns="http://www.w3.org/2000/svg" width="36.394" height="25.333" viewBox="0 0 36.394 25.333"><g transform="translate(-489.751 -648.385)"><path d="M530.165,650.985h-17.5a1.3,1.3,0,0,1-1.436-1.431,1.266,1.266,0,0,1,1.058-1.138,3.056,3.056,0,0,1,.481-.029h18.46a1.343,1.343,0,0,1,1.531,1.544c0,.233,0,.467,0,.737h.38c1.385,0,2.771.01,4.156,0a1.4,1.4,0,0,1,1.385.851c1.037,2.085,2.077,4.168,3.142,6.239a9.372,9.372,0,0,0,.87,1.27c.443.594.9,1.175,1.362,1.756a1.469,1.469,0,0,1,.333.95c0,2.416,0,4.832,0,7.249a1.274,1.274,0,0,1-1.373,1.364c-.945,0-1.89.006-2.835,0a.3.3,0,0,0-.341.243,4.7,4.7,0,0,1-8.867-.006.307.307,0,0,0-.346-.236q-2.98.009-5.96,0a.324.324,0,0,0-.367.255,4.7,4.7,0,0,1-8.856,0,.325.325,0,0,0-.367-.255c-.827.012-1.654.008-2.481,0a1.295,1.295,0,1,1,0-2.585q1.24-.006,2.481,0c.166,0,.261-.026.33-.211a4.705,4.705,0,0,1,8.965.069c.012.041.033.079.059.14h.281c1.944,0,3.887,0,5.831.006a.374.374,0,0,0,.432-.3,4.7,4.7,0,0,1,8.823-.156c.054.14.1.282.158.435h1.836c0-.106.014-.208.014-.31,0-1.686,0-3.372-.006-5.058a.845.845,0,0,0-.156-.464c-.4-.544-.83-1.068-1.235-1.61a.5.5,0,0,0-.455-.223q-4.14.011-8.279,0a1.319,1.319,0,0,1-1.5-1.506q0-3.576,0-7.152Zm2.606,6.48h5.967a1.456,1.456,0,0,0-.05-.14c-.649-1.295-1.295-2.591-1.958-3.878a.462.462,0,0,0-.347-.185c-.88-.015-1.761-.008-2.641-.008h-.97ZM519.864,666.9a2.109,2.109,0,1,0,2.114,2.1A2.109,2.109,0,0,0,519.864,666.9Zm15.532,4.217a2.109,2.109,0,1,0-2.114-2.1A2.118,2.118,0,0,0,535.4,671.119Z" transform="translate(-18.239)" fill="#fff"/><path d="M508.246,679.441q2.381,0,4.763,0a1.3,1.3,0,1,1,.011,2.586q-4.795,0-9.59,0a1.292,1.292,0,0,1-.36-2.536,1.9,1.9,0,0,1,.478-.045Q505.9,679.438,508.246,679.441Z" transform="translate(-10.51 -26.387)" fill="#fff"/><path d="M495.9,711.709c-1.611,0-3.221,0-4.832,0a1.272,1.272,0,0,1-1.229-.824,1.213,1.213,0,0,1,.34-1.406,1.67,1.67,0,0,1,.9-.345c3.211-.025,6.422-.018,9.632-.013a1.294,1.294,0,1,1-.013,2.587C499.1,711.714,497.5,711.709,495.9,711.709Z" transform="translate(0 -51.6)" fill="#fff"/><path d="M506.038,738.911c.826,0,1.652,0,2.479,0a1.3,1.3,0,1,1,.006,2.591q-2.511,0-5.022,0a1.3,1.3,0,1,1-.006-2.591h2.543Z" transform="translate(-10.502 -76.916)" fill="#fff"/></g></svg>