<svg xmlns="http://www.w3.org/2000/svg" width="14.274" height="30.813" viewBox="0 0 14.274 30.813">
  <path id="Path_234" data-name="Path 234" d="M-1808.136-633.537h-6.262v-15.426h-3.2v-5.282h3.165c0-.9-.028-1.717.007-2.535a27.069,27.069,0,0,1,.239-3.359,4.506,4.506,0,0,1,3.715-3.859,20.727,20.727,0,0,1,3.549-.325c1.163-.052,2.331-.011,3.556-.011v5.419c-1.054,0-2.1,0-3.152,0-1.3,0-1.557.262-1.571,1.583-.011,1,0,2.007,0,3.078h4.768c-.142,1.594-.291,3.114-.407,4.638-.034.447-.243.582-.653.578-1.213-.011-2.425,0-3.749,0Z" transform="translate(1817.6 664.351)" fill="#fff"/>
</svg>
