<svg xmlns="http://www.w3.org/2000/svg" xmlns:xlink="http://www.w3.org/1999/xlink" width="30.903" height="31.527" viewBox="0 0 30.903 31.527">
  <defs>
    <clipPath id="clip-path">
      <rect width="30.903" height="31.527" fill="none"/>
    </clipPath>
  </defs>
  <g id="Repeat_Grid_1" data-name="Repeat Grid 1" clip-path="url(#clip-path)">
    <g id="Group_97" data-name="Group 97" transform="translate(0)">
      <path id="Path_235" data-name="Path 235" d="M-1872.542-549.349a18.516,18.516,0,0,0-.272-3.2h-14.868v6.07h8.514a7.3,7.3,0,0,1-3.151,4.79v3.939h5.08a15.394,15.394,0,0,0,4.7-11.6Z" transform="translate(1903.445 565.475)" fill="#4285f4"/>
      <path id="Path_236" data-name="Path 236" d="M-1902.226-527.9a15.092,15.092,0,0,0,10.449-3.805l-5.08-3.939a9.429,9.429,0,0,1-5.363,1.506,9.436,9.436,0,0,1-8.85-6.5h-5.242v4.06A15.764,15.764,0,0,0-1902.226-527.9Z" transform="translate(1917.989 559.424)" fill="#34a853"/>
      <path id="Path_237" data-name="Path 237" d="M-1912.807-551.062a9.439,9.439,0,0,1,0-6.036v-4.06h-5.236a15.778,15.778,0,0,0,0,14.156Z" transform="translate(1919.72 569.847)" fill="#fbbc04"/>
      <path id="Path_238" data-name="Path 238" d="M-1902.226-572.579a8.565,8.565,0,0,1,6.047,2.363l4.5-4.5a15.149,15.149,0,0,0-10.547-4.1,15.76,15.76,0,0,0-14.086,8.688l5.236,4.06A9.428,9.428,0,0,1-1902.226-572.579Z" transform="translate(1917.989 578.818)" fill="#ea4335"/>
    </g>
  </g>
</svg>
