<svg xmlns="http://www.w3.org/2000/svg" width="48" height="37.191" viewBox="0 0 48 37.191"><g transform="translate(0 -57.645)"><g transform="translate(0 57.645)"><path d="M47.7,70.286l-1.25-2.166a.937.937,0,0,0-1.624.937l1.25,2.166a.366.366,0,0,1-.134.5l-3.306,1.909a.367.367,0,0,1-.5-.134l-6.651-11.52a.366.366,0,0,1,.134-.5l3.306-1.909a.367.367,0,0,1,.5.134l1.182,2.048a.937.937,0,0,0,1.624-.938l-1.182-2.048a2.243,2.243,0,0,0-3.061-.82L34.68,59.854a2.233,2.233,0,0,0-1.013,1.26H24.294a4.895,4.895,0,0,0-3.484,1.443l-.96.96a11.09,11.09,0,0,0-2.572-.3h-2.91a2.234,2.234,0,0,0-1.047-1.379l-3.306-1.909a2.241,2.241,0,0,0-3.061.82L.3,72.265a2.241,2.241,0,0,0,.82,3.061l3.306,1.909a2.226,2.226,0,0,0,1.117.3,2.256,2.256,0,0,0,.412-.039L8.662,80.2a3.41,3.41,0,0,0-.063.652,3.369,3.369,0,0,0,3.185,3.365,3.425,3.425,0,0,0-.019.356,3.373,3.373,0,0,0,3.373,3.373l.073,0c0,.024,0,.049,0,.073a3.373,3.373,0,0,0,3.373,3.373l.073,0c0,.024,0,.049,0,.073a3.372,3.372,0,0,0,5.757,2.385l1.334-1.334a3.351,3.351,0,0,0,.823-1.349,3.375,3.375,0,0,0,5.223-1.714,3.374,3.374,0,0,0,5.144-2.146,3.373,3.373,0,0,0,3.448-5.586l-2.188-2.188,3.994-3.994a2.258,2.258,0,0,0,.268.017,2.227,2.227,0,0,0,1.117-.3l3.306-1.909a2.241,2.241,0,0,0,.82-3.061ZM2.059,73.7a.366.366,0,0,1-.134-.5l6.651-11.52a.364.364,0,0,1,.222-.17.376.376,0,0,1,.1-.012.361.361,0,0,1,.182.049l3.306,1.909a.366.366,0,0,1,.134.5L5.865,75.478a.366.366,0,0,1-.5.134Zm8.415,7.152a1.488,1.488,0,0,1,.439-1.059l.809-.809A1.5,1.5,0,1,1,13.84,81.1l-.809.809a1.5,1.5,0,0,1-2.557-1.059Zm4.664,5.219a1.5,1.5,0,0,1-1.059-2.557l1.334-1.334A1.5,1.5,0,1,1,17.53,84.3L16.2,85.635A1.488,1.488,0,0,1,15.138,86.074Zm3.444,3.444a1.5,1.5,0,0,1-1.059-2.557l1.334-1.333a1.5,1.5,0,1,1,2.118,2.118l-1.334,1.334A1.488,1.488,0,0,1,18.582,89.518Zm5.836,1.672-1.334,1.334a1.5,1.5,0,1,1-2.118-2.118L22.3,89.072a1.5,1.5,0,1,1,2.118,2.118Zm14.638-6.025a1.5,1.5,0,0,1-2.118,0L27.99,76.216a.938.938,0,1,0-1.326,1.326l8.025,8.025a1.5,1.5,0,1,1-2.118,2.118l-9.643-9.643A.937.937,0,0,0,21.6,79.368l8.025,8.025a1.5,1.5,0,0,1-2.118,2.118l-1.765-1.765-.008-.007a3.362,3.362,0,0,0-2.45-.977c0-.025,0-.049,0-.075a3.368,3.368,0,0,0-3.446-3.369c0-.025,0-.05,0-.075a3.37,3.37,0,0,0-3.694-3.356A3.373,3.373,0,0,0,10.4,77.661l-.809.809,0,0L7.5,76.391l6.526-11.3h3.249a9.205,9.205,0,0,1,.952.05l-1.072,1.072a3.373,3.373,0,0,0,4.77,4.77l2.531-2.531,14.6,14.6a1.5,1.5,0,0,1,0,2.118ZM30.049,71.388a5.32,5.32,0,0,0,2.2-4.312.937.937,0,1,0-1.875,0A3.445,3.445,0,0,1,28.7,70.034l-3.571-3.571a.937.937,0,0,0-1.325-.01l-3.2,3.2a1.5,1.5,0,1,1-2.118-2.118l3.653-3.653a3.032,3.032,0,0,1,2.158-.894H33.9l6.609,11.447c.016.027.033.053.049.079l-3.692,3.692Z" transform="translate(0 -57.645)" fill="#fff"/><path d="M455.232,127.285a.938.938,0,1,0-.663-.275A.946.946,0,0,0,455.232,127.285Z" transform="translate(-411.704 -119.057)" fill="#fff"/></g></g></svg>