<svg xmlns="http://www.w3.org/2000/svg" width="23.19" height="21.035" viewBox="0 0 23.19 21.035">
  <path id="heart_1_" data-name="heart (1)" d="M16.43,22.543a6.687,6.687,0,0,0-3.072.737,6.814,6.814,0,0,0-1.763,1.3,6.814,6.814,0,0,0-1.763-1.3,6.688,6.688,0,0,0-3.072-.737A6.768,6.768,0,0,0,0,29.3c0,2.64,1.394,5.445,4.145,8.335a40.076,40.076,0,0,0,7.061,5.688l.389.252.389-.252a40.074,40.074,0,0,0,7.061-5.688c2.75-2.89,4.145-5.695,4.145-8.335A6.768,6.768,0,0,0,16.43,22.543Z" transform="translate(0 -22.543)" fill="#fff"/>
</svg>
