<svg xmlns="http://www.w3.org/2000/svg" width="27.25" height="34.93" viewBox="0 0 27.25 34.93">
  <g id="Group_350" data-name="Group 350" transform="translate(-2304.125 -315.62)">
    <g id="Group_349" data-name="Group 349" transform="translate(2304.125 315.62)">
      <path id="Path_188" data-name="Path 188" d="M2375.174,323.1h.007a.927.927,0,0,0,.922-.933v-5.622a.928.928,0,0,0-1.855,0v5.628A.927.927,0,0,0,2375.174,323.1Z" transform="translate(-2367.821 -315.62)" fill="#f9f9f9"/>
      <path id="Path_189" data-name="Path 189" d="M2507.248,323.1h.007a.927.927,0,0,0,.921-.933v-5.622a.928.928,0,0,0-1.855,0v5.628h0A.927.927,0,0,0,2507.248,323.1Z" transform="translate(-2487.792 -315.62)" fill="#f9f9f9"/>
      <path id="Path_190" data-name="Path 190" d="M2317.634,471.193a2.932,2.932,0,0,1,2.8-2.061h1.868v-1.969a2.933,2.933,0,1,1,5.866,0v1.969h1.969a2.927,2.927,0,0,1,.77.1q.02-.2.021-.4v-12.8h-26.8v12.8a3.961,3.961,0,0,0,3.952,3.952h9.516a2.939,2.939,0,0,1,.041-1.6Z" transform="translate(-2304.125 -443.173)" fill="#f9f9f9"/>
      <path id="Path_191" data-name="Path 191" d="M2330.969,350.276a3.961,3.961,0,0,0-3.952-3.952h-.615v3.741a2.783,2.783,0,1,1-5.566,0v-3.745h-6.54v3.741a2.783,2.783,0,0,1-5.566,0v-3.741h-.615a3.961,3.961,0,0,0-3.952,3.952v4.243h26.806Z" transform="translate(-2304.159 -343.506)" fill="#f9f9f9"/>
    </g>
    <path id="Path_192" data-name="Path 192" d="M2479.533,568.793h-3.664v-3.664a1.237,1.237,0,1,0-2.475,0v3.664h-3.564a1.237,1.237,0,0,0,0,2.475h3.564v3.564a1.237,1.237,0,1,0,2.475,0v-3.564h3.664a1.237,1.237,0,1,0,0-2.475Z" transform="translate(-149.395 -225.52)" fill="#fff"/>
  </g>
</svg>
