<svg xmlns="http://www.w3.org/2000/svg" width="25.674" height="25.677" viewBox="0 0 25.674 25.677"><path d="M24.984,11.168l0,0L14.508.692a2.363,2.363,0,0,0-3.343,0L.7,11.16l-.011.011A2.363,2.363,0,0,0,2.259,15.2q.036,0,.073,0H2.75V22.91a2.77,2.77,0,0,0,2.767,2.766h4.1a.752.752,0,0,0,.752-.752V18.881a1.264,1.264,0,0,1,1.262-1.262h2.417a1.264,1.264,0,0,1,1.262,1.262v6.043a.752.752,0,0,0,.752.752h4.1a2.77,2.77,0,0,0,2.767-2.766V15.2h.387a2.364,2.364,0,0,0,1.673-4.034Zm0,0" transform="translate(0 0.001)" fill="#fff"/></svg>