<svg xmlns="http://www.w3.org/2000/svg" width="37.333" height="37.333" viewBox="0 0 37.333 37.333"><path d="M25.49,11.846A12.762,12.762,0,1,0,11.846,25.491,12.76,12.76,0,1,0,25.49,11.846Zm-23.3.915A10.574,10.574,0,0,1,23.3,11.876a12.705,12.705,0,0,0-6.911,2.915L13.871,7.237a1.094,1.094,0,0,0-2.075,0l-3.5,10.5a1.094,1.094,0,1,0,2.075.692l.528-1.585h3.528A12.694,12.694,0,0,0,11.876,23.3,10.578,10.578,0,0,1,2.188,12.76Zm11.851,1.9H11.629l1.2-3.614Zm10.535,20.49A10.573,10.573,0,1,1,35.146,24.573,10.585,10.585,0,0,1,24.573,35.146Z" fill="#fff"/><path d="M261.01,265h-2.917a1.094,1.094,0,1,0,0,2.188h1.767c-.172,1.877-.783,4.885-2.45,6.219a1.094,1.094,0,1,0,1.366,1.708c3.289-2.631,3.327-8.761,3.327-9.021A1.094,1.094,0,0,0,261.01,265Z" transform="translate(-238.26 -245.677)" fill="#fff"/><path d="M356.427,253.083h-1.24v-2.99a1.094,1.094,0,0,0-2.187,0v10.5a1.094,1.094,0,1,0,2.188,0v-5.323h1.24a1.094,1.094,0,0,0,0-2.187Z" transform="translate(-327.26 -230.844)" fill="#fff"/><path d="M370.094,35.188a4.745,4.745,0,0,1,4.74,4.74,1.094,1.094,0,0,0,2.188,0A6.935,6.935,0,0,0,370.094,33a1.094,1.094,0,0,0,0,2.188Z" transform="translate(-342.094 -30.594)" fill="#fff"/><path d="M39.927,374.833a4.745,4.745,0,0,1-4.74-4.74,1.094,1.094,0,0,0-2.187,0,6.935,6.935,0,0,0,6.927,6.927,1.094,1.094,0,0,0,0-2.187Z" transform="translate(-30.594 -342.094)" fill="#fff"/></svg>