<svg xmlns="http://www.w3.org/2000/svg" width="38.667" height="35.329" viewBox="0 0 38.667 35.329"><g transform="translate(3.5 -18.897)"><path d="M173.1,202.5a1.369,1.369,0,0,0-.437-.507h0l-4.081-2.877a1.362,1.362,0,0,0-.789-.253,1.4,1.4,0,0,0-.958.384,1.359,1.359,0,0,0-.309.438,1.376,1.376,0,0,0-.116.558v1.5H147.073a1.378,1.378,0,1,0,0,2.757h19.336v1.5a1.36,1.36,0,0,0,.634,1.159,1.4,1.4,0,0,0,.75.22,1.362,1.362,0,0,0,.788-.252l4.081-2.877a1.365,1.365,0,0,0,.437-.506,1.391,1.391,0,0,0,0-1.239Z" transform="translate(-138.08 -166.554)" fill="#fff"/><path d="M28.962,43.512l-.131.226.131-.226a1.378,1.378,0,0,0-1.883.5,14.909,14.909,0,1,1,0-14.906,1.378,1.378,0,1,0,2.386-1.38,17.665,17.665,0,1,0,0,17.667h0a1.378,1.378,0,0,0-.5-1.883Z" fill="#fff"/></g></svg>