<svg xmlns="http://www.w3.org/2000/svg" width="33.986" height="37.653" viewBox="0 0 33.986 37.653"><g transform="translate(-226.118 -550.031)"><path d="M260.1,568.686q-.008-2.239-.007-4.477,0-3.428,0-6.857,0-.2,0-.409a1.93,1.93,0,0,0-.07-.553,1.086,1.086,0,0,0-.163-.336,1,1,0,0,0-.435-.333,1.9,1.9,0,0,0-.6-.125c-1.188-.077-2.373-.122-3.537-.264a24.811,24.811,0,0,1-7.233-1.951,10.724,10.724,0,0,1-3.828-2.661,6.684,6.684,0,0,0-.719-.635l-.063-.054h-.67l-.061.049c-.189.152-.4.3-.593.481a20.605,20.605,0,0,1-1.611,1.475,17.588,17.588,0,0,1-6.152,2.652,30.07,30.07,0,0,1-6.956.914,1.765,1.765,0,0,0-.538.084,1.019,1.019,0,0,0-.565.442,1.43,1.43,0,0,0-.177.745c0,2.178-.008,4.357-.008,6.536,0,1.942.006,3.885.028,5.828a16.617,16.617,0,0,0,.4,3.354,17.537,17.537,0,0,0,5.893,9.53,26.652,26.652,0,0,0,10.275,5.51,1.406,1.406,0,0,0,.391.052,1.807,1.807,0,0,0,.511-.075,26.319,26.319,0,0,0,10.9-6.16,18.491,18.491,0,0,0,4.142-5.745,16.741,16.741,0,0,0,1.447-6.946C260.1,568.735,260.1,568.71,260.1,568.686Zm-2.3-4.309c0,1.66-.007,3.319-.031,4.978a14.034,14.034,0,0,1-3.5,8.985,22.424,22.424,0,0,1-9.136,6.32c-.525.21-1.084.374-1.637.589a.975.975,0,0,1-.361.07,1.267,1.267,0,0,1-.4-.071,24.307,24.307,0,0,1-9.367-5.4,15.023,15.023,0,0,1-4.647-8.134,15.557,15.557,0,0,1-.272-2.81q-.02-2.354-.017-4.71c0-2.052.007-4.105.008-6.159,0-.037,0-.077,0-.117a37.437,37.437,0,0,0,7.732-1.324,19.466,19.466,0,0,0,6.964-3.668,17.03,17.03,0,0,0,6.6,3.557,31.27,31.27,0,0,0,7.9,1.4h0l.149.01v.245C257.789,560.214,257.8,562.3,257.8,564.377Z" transform="translate(0)" fill="#fff"/><path d="M313.246,631.8a1.037,1.037,0,0,0-.435-.53,1.414,1.414,0,0,0-.708-.188c-.1,0-.2,0-.3,0h-.317c0-.34.005-.67.005-.993,0-.234,0-.466-.01-.7a4.086,4.086,0,0,0-1.048-2.619,3.792,3.792,0,0,0-2.455-1.241q-.211-.02-.418-.02a4.005,4.005,0,0,0-2.5.849,3.817,3.817,0,0,0-1.371,2.26,13.521,13.521,0,0,0-.114,2.133c0,.069,0,.137,0,.2,0,.041,0,.083,0,.124l-.352,0c-.11,0-.219,0-.328.006a1.234,1.234,0,0,0-.843.341,1.186,1.186,0,0,0-.322.852q0,1.7,0,3.41,0,1.985.007,3.969a1.108,1.108,0,0,0,1.177,1.18q2.367.006,4.733.006,2.25,0,4.5-.005a1.431,1.431,0,0,0,.486-.08,1.018,1.018,0,0,0,.528-.423,1.318,1.318,0,0,0,.18-.7q.006-1.857.006-3.715,0-1.814-.006-3.628A1.412,1.412,0,0,0,313.246,631.8Zm-2.228,6.734h-6.967v-5.115h6.967Zm-1.856-7.47h-3.3a14.352,14.352,0,0,1,.121-2.107,1.334,1.334,0,0,1,.543-.831,1.706,1.706,0,0,1,.995-.326,1.54,1.54,0,0,1,.2.013,1.667,1.667,0,0,1,1.008.52,1.579,1.579,0,0,1,.423,1.032c.006.237.008.475.008.716C309.167,630.4,309.164,630.724,309.163,631.059Z" transform="translate(-64.414 -64.303)" fill="#fff"/></g></svg>