<svg xmlns="http://www.w3.org/2000/svg" width="34" height="34.003" viewBox="0 0 34 34.003">
  <g id="Group_130" data-name="Group 130" transform="translate(-791.784 -832.934)">
    <path id="Path_241" data-name="Path 241" d="M871.11,866.4a2.945,2.945,0,0,0-.056-.644,1.068,1.068,0,0,0-.16-.38.813.813,0,0,0-.219-.214,1.14,1.14,0,0,0-.437-.163,3.153,3.153,0,0,0-.548-.039H848.1a2.908,2.908,0,0,0-.637.055,1.03,1.03,0,0,0-.377.162.8.8,0,0,0-.209.222,1.173,1.173,0,0,0-.155.441,3.464,3.464,0,0,0-.036.557q0,3.184,0,6.367v6.367q0,3.386,0,6.772,0,3.047,0,6.095a2.571,2.571,0,0,0,.059.61,1.036,1.036,0,0,0,.163.365.822.822,0,0,0,.215.2,1.14,1.14,0,0,0,.425.161,2.926,2.926,0,0,0,.527.04h21.635a2.6,2.6,0,0,0,.621-.06,1.048,1.048,0,0,0,.371-.166.836.836,0,0,0,.207-.219,1.173,1.173,0,0,0,.162-.434,3.03,3.03,0,0,0,.04-.541q0-6.389,0-12.778T871.11,866.4Zm-22.29.716h20.147v24.116H848.82Z" transform="translate(-45.326 -26.439)" fill="#fff"/>
    <path id="Path_242" data-name="Path 242" d="M793.936,858.418V835.081h20.172v2.343h2.1v-.262c0-.6,0-1.193,0-1.777,0-.375,0-.747,0-1.12a2.3,2.3,0,0,0-.062-.58,1.025,1.025,0,0,0-.163-.351.906.906,0,0,0-.473-.322,2.206,2.206,0,0,0-.649-.078h-21.72a2.339,2.339,0,0,0-.593.063,1.04,1.04,0,0,0-.358.166.924.924,0,0,0-.327.482,2.263,2.263,0,0,0-.08.664q0,6.223,0,12.446t0,12.446a2.357,2.357,0,0,0,.062.593,1.036,1.036,0,0,0,.165.358.915.915,0,0,0,.482.327,2.286,2.286,0,0,0,.665.08h2.687l3.7,0c.161,0,.307-.016.453-.024l.247-.014v-2.1h-6.31Z" transform="translate(0)" fill="#fff"/>
    <path id="Path_243" data-name="Path 243" d="M819.482,866.777a.843.843,0,0,0,.273.235.878.878,0,0,0,.371.1c.358.019.715.024,1.071.024.5,0,.989-.01,1.483-.01h.262v-2.06h-.262c-.494,0-.983-.008-1.47-.008-.353,0-.705,0-1.058.02a.9.9,0,0,0-.649.327,1.035,1.035,0,0,0-.243.663c0,.018,0,.037,0,.055A1.188,1.188,0,0,0,819.482,866.777Z" transform="translate(-22.685 -26.522)" fill="#fff"/>
    <path id="Path_244" data-name="Path 244" d="M821.239,919.8c-.333,0-.663,0-.994.011a.99.99,0,0,0-.7.306,1.07,1.07,0,0,0-.291.685c0,.019,0,.038,0,.056a1.1,1.1,0,0,0,.241.685.9.9,0,0,0,.665.345c.351.015.7.02,1.052.02.489,0,.977-.009,1.468-.009h.261V919.81h-.261C822.188,919.81,821.71,919.8,821.239,919.8Z" transform="translate(-22.682 -71.722)" fill="#fff"/>
    <path id="Path_245" data-name="Path 245" d="M819.265,925.548h0Z" transform="translate(-22.689 -76.462)" fill="#fff"/>
    <path id="Path_246" data-name="Path 246" d="M821.224,947.175c-.335,0-.669,0-1,.017a.986.986,0,0,0-.706.336,1.072,1.072,0,0,0-.266.708v.028a1.068,1.068,0,0,0,.275.693.97.97,0,0,0,.694.318c.338.01.675.013,1.014.013.476,0,.953-.006,1.438-.006h.262v-2.1h-.262C822.182,947.183,821.7,947.175,821.224,947.175Z" transform="translate(-22.675 -94.319)" fill="#fff"/>
    <path id="Path_247" data-name="Path 247" d="M819.511,894.174a.953.953,0,0,0,.688.34c.341.015.681.02,1.021.02.485,0,.97-.009,1.46-.009h.262v-2.1h-.262c-.492,0-.969,0-1.44,0-.331,0-.659,0-.988.011a1,1,0,0,0-.7.3,1.058,1.058,0,0,0-.295.679c0,.023,0,.044,0,.066A1.078,1.078,0,0,0,819.511,894.174Z" transform="translate(-22.683 -49.116)" fill="#fff"/>
    <path id="Path_248" data-name="Path 248" d="M819.269,898.084h0Z" transform="translate(-22.692 -53.788)" fill="#fff"/>
    <path id="Path_249" data-name="Path 249" d="M874.372,903.348a1.228,1.228,0,0,0,.794.306h0l.112,0h4.453q4.333,0,8.665,0a1.926,1.926,0,0,0,.7-.108.988.988,0,0,0,.473-.373,1.012,1.012,0,0,0,.161-.563c0-.034,0-.068,0-.1a1.006,1.006,0,0,0-.772-.929,1.483,1.483,0,0,0-.388-.041h-6.683v0h-4.852q-.923,0-1.847,0a1.183,1.183,0,0,0-.811.285.941.941,0,0,0-.235.341,1.121,1.121,0,0,0-.078.408h0v.015h0A1.016,1.016,0,0,0,874.372,903.348Z" transform="translate(-67.926 -56.638)" fill="#fff"/>
    <path id="Path_250" data-name="Path 250" d="M874.3,958.108a.993.993,0,0,0,.443.262,1.725,1.725,0,0,0,.486.06h.007q1.63,0,3.26,0h3.348v0h6.565a1.465,1.465,0,0,0,.906-.261.932.932,0,0,0,.276-.34,1.044,1.044,0,0,0,.1-.438h0v-.016a1.03,1.03,0,0,0-.1-.446.99.99,0,0,0-.476-.464,1.692,1.692,0,0,0-.729-.149H875.236a1.842,1.842,0,0,0-.383.032,1.043,1.043,0,0,0-.761,1.447A1.077,1.077,0,0,0,874.3,958.108Z" transform="translate(-67.881 -101.862)" fill="#fff"/>
    <path id="Path_251" data-name="Path 251" d="M884.445,985.837a2.325,2.325,0,0,0,.444-.032,1.071,1.071,0,0,0,.606-.346.99.99,0,0,0,.244-.65c0-.018,0-.037,0-.057a1.109,1.109,0,0,0-.225-.64,1.017,1.017,0,0,0-.6-.353,2.818,2.818,0,0,0-.579-.041l-2.373,0h-5.1c-.315,0-.632,0-.95,0-.249,0-.5,0-.751.01a1.193,1.193,0,0,0-.8.3,1.015,1.015,0,0,0-.305.756v.018a1.1,1.1,0,0,0,.083.416.951.951,0,0,0,.407.456,1.378,1.378,0,0,0,.635.169h9.264Z" transform="translate(-67.924 -124.486)" fill="#fff"/>
    <path id="Path_252" data-name="Path 252" d="M874.147,930.435a.937.937,0,0,0,.446.459,1.538,1.538,0,0,0,.691.143h9.21a1.4,1.4,0,0,0,.891-.266.93.93,0,0,0,.268-.344,1.059,1.059,0,0,0,.09-.439v-.024a1.075,1.075,0,0,0-.095-.432.966.966,0,0,0-.449-.458,1.515,1.515,0,0,0-.688-.147H875.3a1.391,1.391,0,0,0-.891.266.915.915,0,0,0-.265.347,1.1,1.1,0,0,0-.087.442V930A1.1,1.1,0,0,0,874.147,930.435Z" transform="translate(-67.926 -79.251)" fill="#fff"/>
  </g>
</svg>
